<svg width="312" height="300" viewBox="0 0 312 300" fill="none" xmlns="http://www.w3.org/2000/svg">
<path d="M184.888 275.579C69.6839 244.71 34.9486 178.359 34.9486 178.359L13.1317 147.42L4.13874 108.283C4.13874 108.283 -32.0373 -164.073 129.913 -139.254C291.863 -114.435 511.236 -109.638 563.688 -38.407C616.139 32.8237 574.22 71.8024 542.031 93.3617C509.841 114.921 480.677 152.674 516.635 188.14C552.593 223.605 563.13 279.542 512.894 296.556C462.659 313.57 405.517 241.399 346.91 272.555C288.824 303.435 248.267 292.566 186.552 276.025L184.888 275.579Z" fill="url(#paint0_linear_2_30)"/>
<defs>
<linearGradient id="paint0_linear_2_30" x1="634.109" y1="93.9394" x2="-3.56137" y2="436.871" gradientUnits="userSpaceOnUse">
<stop stop-color="#E05C34"/>
<stop offset="0.0001" stop-color="#ECE3D4"/>
<stop offset="1" stop-color="#F4FBFA"/>
</linearGradient>
</defs>
</svg>
