<svg width="760" height="199" viewBox="0 0 760 199" fill="none" xmlns="http://www.w3.org/2000/svg">
<path d="M759.8 532.491C759.8 716.312 661.528 794.491 661.528 794.491L618.299 839.312L555.027 868.312C555.027 868.312 102.528 1030.81 70.5274 779.812C38.5272 528.812 -54.4729 200.312 44.0271 93.8118C142.527 -12.6882 229.027 34.1689 281.027 73.4903C333.027 112.812 411.528 141.169 456.027 73.4903C500.527 5.81168 592.027 -32.1883 644.527 35.8117C697.027 103.812 599.072 217.669 679.8 292.491C759.81 366.647 759.806 431.36 759.8 529.835L759.8 532.491Z" fill="url(#paint0_linear_2_29)"/>
<defs>
<linearGradient id="paint0_linear_2_29" x1="-0.114432" y1="349.181" x2="759.886" y2="-0.3186" gradientUnits="userSpaceOnUse">
<stop stop-color="#ECE3D4"/>
<stop offset="1" stop-color="#F4FBFA"/>
</linearGradient>
</defs>
</svg>
