<svg width="439" height="271" viewBox="0 0 439 271" fill="none" xmlns="http://www.w3.org/2000/svg">
<path d="M84.7955 271C-37.4793 271 -89.4829 218.488 -89.4829 218.488L-119.297 195.389L-138.587 161.579C-138.587 161.579 -246.68 -80.2143 -79.7186 -97.3136C87.2427 -114.413 305.756 -164.108 376.598 -111.474C447.44 -58.8405 416.271 -12.619 390.115 15.1672C363.959 42.9533 345.097 84.9003 390.115 108.679C435.134 132.457 460.411 181.351 415.179 209.404C369.946 237.457 294.21 185.115 244.44 228.252C195.112 271.006 152.066 271.003 86.5621 271L84.7955 271Z" fill="url(#paint0_linear_2_28)"/>
<defs>
<linearGradient id="paint0_linear_2_28" x1="439.125" y1="270.854" x2="-61.282" y2="-243.74" gradientUnits="userSpaceOnUse">
<stop stop-color="#EDE2D4"/>
<stop offset="1" stop-color="#E5F5F4"/>
</linearGradient>
</defs>
</svg>
